<svg xmlns="http://www.w3.org/2000/svg" xmlns:xlink="http://www.w3.org/1999/xlink" width="500" zoomAndPan="magnify" viewBox="0 0 375 149.999998" height="200" preserveAspectRatio="xMidYMid meet" version="1.0"><defs><g/><clipPath id="a56f5f1d1d"><path d="M 0 18.410156 L 108.878906 18.410156 L 108.878906 137.914062 L 0 137.914062 Z M 0 18.410156 " clip-rule="nonzero"/></clipPath><clipPath id="a0f62b8d81"><path d="M 238 77.855469 L 247 77.855469 L 247 85.824219 L 238 85.824219 Z M 238 77.855469 " clip-rule="nonzero"/></clipPath><clipPath id="8813f03607"><path d="M 109.4375 80 L 232 80 L 232 83 L 109.4375 83 Z M 109.4375 80 " clip-rule="nonzero"/></clipPath></defs><g clip-path="url(#a56f5f1d1d)"><path fill="#2e2c3b" d="M 108.957031 34.757812 C 111.070312 57.148438 105.773438 85.253906 93.800781 108.480469 C 85.335938 110.8125 63.90625 107.859375 55.210938 106.542969 L 55.210938 99.675781 L 41.570312 99.175781 L 45.160156 90.140625 C 43.425781 89.707031 41.734375 89.113281 40.09375 88.378906 L 37.535156 93 L 40 94.488281 L 19.386719 131.941406 C 16.378906 137.414062 9.214844 138.984375 4.1875 135.273438 C -0.117188 132.074219 -1.257812 126.019531 1.589844 121.46875 L 24.382812 85.15625 L 27.351562 86.929688 L 30.65625 81.90625 C 9.132812 60.34375 28.269531 23.203125 58.664062 29.015625 L 61.171875 18.410156 L 104.824219 24.085938 C 105.042969 27.023438 105.21875 29.976562 105.257812 34.757812 Z M 91.414062 105.515625 C 93.855469 100.503906 108.171875 69.460938 105.785156 38.210938 L 105.257812 38.210938 C 105.097656 58.867188 102.101562 84.234375 90.117188 100.976562 L 58.664062 99.8125 L 58.664062 103.578125 C 64.246094 104.363281 84.113281 106.992188 91.414062 105.515625 Z M 88.382812 97.457031 C 103.1875 75.785156 101.96875 35.191406 101.5625 27.144531 L 63.824219 22.242188 L 62.023438 29.855469 C 74.796875 33.796875 84.101562 45.714844 84.101562 59.773438 C 84.101562 78.519531 67.589844 93.324219 48.601562 90.804688 L 46.570312 95.925781 Z M 41.03125 59.800781 L 80.648438 59.800781 C 80.648438 58.433594 80.554688 57.078125 80.335938 55.65625 L 42.003906 56.714844 L 41.976562 55.5625 L 80.132812 54.492188 C 79.847656 53.03125 79.457031 51.59375 78.953125 50.210938 L 44.078125 51.011719 L 44.050781 49.859375 L 51.582031 49.683594 L 78.496094 49.074219 C 72.859375 35.53125 57.59375 28.566406 43.617188 33.457031 C 43.386719 35.488281 42.84375 40.09375 41.828125 45.769531 C 41.3125 48.65625 40.679688 51.824219 39.890625 55.0625 C 39.175781 58.136719 38.335938 61.265625 37.359375 64.324219 C 35.773438 69.269531 33.824219 73.96875 31.480469 77.707031 C 31.886719 78.195312 32.320312 78.65625 32.753906 79.117188 C 37.144531 75.40625 43.65625 79.886719 41.695312 85.304688 C 57.742188 92.335938 76.421875 82.734375 80.039062 65.492188 L 38.984375 65.492188 L 38.984375 64.339844 L 80.253906 64.339844 C 80.445312 63.230469 80.554688 62.089844 80.621094 60.941406 L 41.03125 60.941406 Z M 38.292969 84.492188 C 39.203125 82.855469 37.792969 80.945312 35.992188 81.285156 C 34.773438 81.515625 34.867188 81.742188 30.300781 88.71875 L 34.554688 91.253906 Z M 29.257812 74.6875 C 35.898438 63.050781 38.972656 42.695312 39.933594 35.054688 C 25.507812 42.585938 20.46875 60.804688 29.257812 74.6875 Z M 35.339844 95.75 L 25.496094 89.855469 L 4.515625 123.3125 C 1.316406 128.40625 5.839844 134.972656 11.800781 133.675781 C 15.945312 132.78125 14.957031 132.820312 35.339844 95.75 Z M 35.339844 95.75 " fill-opacity="1" fill-rule="nonzero"/></g><path fill="#2e2c3b" d="M 105.800781 38.210938 C 108.171875 69.460938 93.855469 100.503906 91.429688 105.515625 C 84.128906 106.976562 64.246094 104.363281 58.664062 103.5625 L 58.664062 99.8125 L 90.128906 100.976562 C 102.117188 84.234375 105.109375 58.867188 105.273438 38.210938 Z M 105.800781 38.210938 " fill-opacity="1" fill-rule="nonzero"/><path fill="#d9d9d9" d="M 80.648438 59.800781 L 41.03125 59.800781 L 41.03125 60.953125 L 80.621094 60.953125 C 80.566406 62.105469 80.445312 63.242188 80.253906 64.351562 L 38.984375 64.351562 L 37.359375 64.339844 C 38.335938 61.292969 39.175781 58.148438 39.890625 55.074219 L 41.976562 55.5625 L 42.003906 56.714844 L 80.324219 55.644531 C 80.539062 57.078125 80.648438 58.433594 80.648438 59.800781 Z M 80.648438 59.800781 " fill-opacity="1" fill-rule="nonzero"/><path fill="#d9d9d9" d="M 80.148438 54.492188 L 41.992188 55.5625 L 39.90625 55.074219 C 40.679688 51.835938 41.3125 48.667969 41.84375 45.785156 L 44.089844 46.230469 L 44.089844 47.382812 L 51.554688 47.382812 L 51.609375 49.683594 L 44.078125 49.859375 L 44.105469 51.011719 L 78.980469 50.210938 C 79.46875 51.59375 79.847656 53.03125 80.148438 54.492188 Z M 80.148438 54.492188 " fill-opacity="1" fill-rule="nonzero"/><path fill="#d9d9d9" d="M 38.984375 65.503906 L 80.039062 65.503906 C 76.421875 82.746094 57.742188 92.347656 41.695312 85.320312 C 43.65625 79.902344 37.144531 75.40625 32.753906 79.128906 C 32.320312 78.667969 31.886719 78.207031 31.480469 77.722656 C 33.824219 73.96875 35.773438 69.28125 37.359375 64.339844 L 38.984375 64.351562 Z M 69.839844 72.65625 L 69.839844 71.503906 L 67.238281 71.503906 L 67.238281 72.65625 Z M 68.824219 69.132812 L 68.824219 67.984375 L 65.667969 67.984375 L 65.667969 69.132812 Z M 68.824219 69.132812 " fill-opacity="1" fill-rule="nonzero"/><path fill="#d9d9d9" d="M 78.496094 49.074219 L 51.582031 49.683594 L 51.527344 47.382812 L 51.527344 46.230469 L 44.0625 46.230469 L 41.816406 45.785156 C 42.816406 40.109375 43.375 35.503906 43.601562 33.472656 C 57.59375 28.566406 72.859375 35.53125 78.496094 49.074219 Z M 58.691406 47.382812 L 58.691406 46.230469 L 55.617188 46.230469 L 55.617188 47.382812 Z M 58.691406 47.382812 " fill-opacity="1" fill-rule="nonzero"/><path fill="#2e2c3b" d="M 67.238281 71.503906 L 69.839844 71.503906 L 69.839844 72.65625 L 67.238281 72.65625 Z M 67.238281 71.503906 " fill-opacity="1" fill-rule="nonzero"/><path fill="#2e2c3b" d="M 65.667969 67.984375 L 68.824219 67.984375 L 68.824219 69.132812 L 65.667969 69.132812 Z M 65.667969 67.984375 " fill-opacity="1" fill-rule="nonzero"/><path fill="#2e2c3b" d="M 55.632812 46.230469 L 58.707031 46.230469 L 58.707031 47.382812 L 55.632812 47.382812 Z M 55.632812 46.230469 " fill-opacity="1" fill-rule="nonzero"/><path fill="#2e2c3b" d="M 44.078125 46.230469 L 51.539062 46.230469 L 51.539062 47.382812 L 44.078125 47.382812 Z M 44.078125 46.230469 " fill-opacity="1" fill-rule="nonzero"/><path fill="#d9d9d9" d="M 39.933594 35.054688 C 38.972656 42.695312 35.898438 63.050781 29.257812 74.6875 C 20.46875 60.804688 25.507812 42.585938 39.933594 35.054688 Z M 39.933594 35.054688 " fill-opacity="1" fill-rule="nonzero"/><g fill="#ff3131" fill-opacity="1"><g transform="translate(120.039561, 67.931914)"><g><path d="M 47.59375 -32.125 L 45.09375 -32.125 C 44.976562 -34.03125 44.695312 -35.613281 44.25 -36.875 C 43.800781 -38.144531 43.164062 -39.160156 42.34375 -39.921875 C 41.53125 -40.679688 40.535156 -41.207031 39.359375 -41.5 C 38.191406 -41.789062 36.832031 -41.9375 35.28125 -41.9375 C 33.757812 -41.9375 32.539062 -41.90625 31.625 -41.84375 C 30.707031 -41.789062 30.003906 -41.695312 29.515625 -41.5625 C 29.035156 -41.425781 28.71875 -41.238281 28.5625 -41 C 28.40625 -40.769531 28.328125 -40.476562 28.328125 -40.125 L 28.328125 -9.515625 C 28.328125 -8.273438 28.414062 -7.207031 28.59375 -6.3125 C 28.769531 -5.414062 29.128906 -4.679688 29.671875 -4.109375 C 30.210938 -3.546875 31.007812 -3.117188 32.0625 -2.828125 C 33.113281 -2.535156 34.5 -2.375 36.21875 -2.34375 L 36.21875 0 L 11.734375 0 L 11.734375 -2.34375 C 13.492188 -2.375 14.894531 -2.535156 15.9375 -2.828125 C 16.988281 -3.117188 17.796875 -3.546875 18.359375 -4.109375 C 18.929688 -4.679688 19.300781 -5.414062 19.46875 -6.3125 C 19.644531 -7.207031 19.734375 -8.273438 19.734375 -9.515625 L 19.734375 -40.125 C 19.734375 -40.476562 19.664062 -40.769531 19.53125 -41 C 19.394531 -41.238281 19.113281 -41.425781 18.6875 -41.5625 C 18.257812 -41.695312 17.644531 -41.789062 16.84375 -41.84375 C 16.050781 -41.90625 15.007812 -41.9375 13.71875 -41.9375 C 12.320312 -41.9375 10.976562 -41.867188 9.6875 -41.734375 C 8.40625 -41.597656 7.273438 -41.207031 6.296875 -40.5625 C 5.328125 -39.914062 4.539062 -38.941406 3.9375 -37.640625 C 3.332031 -36.335938 3.015625 -34.5 2.984375 -32.125 L 0.703125 -32.125 L 1.28125 -44.96875 L 47.015625 -44.96875 Z M 47.59375 -32.125 "/></g></g></g><g fill="#2e2c3b" fill-opacity="1"><g transform="translate(168.359424, 67.931914)"><g><path d="M 44.96875 -9.28125 C 44.96875 -7.800781 45.046875 -6.601562 45.203125 -5.6875 C 45.359375 -4.78125 45.660156 -4.082031 46.109375 -3.59375 C 46.554688 -3.101562 47.195312 -2.757812 48.03125 -2.5625 C 48.875 -2.375 49.976562 -2.257812 51.34375 -2.21875 L 51.34375 0 L 32.421875 0 L 32.421875 -2.21875 C 33.773438 -2.257812 34.867188 -2.375 35.703125 -2.5625 C 36.546875 -2.757812 37.203125 -3.09375 37.671875 -3.5625 C 38.140625 -4.03125 38.453125 -4.691406 38.609375 -5.546875 C 38.765625 -6.398438 38.84375 -7.507812 38.84375 -8.875 L 38.84375 -21.546875 L 15.1875 -21.546875 L 15.1875 -9.28125 C 15.1875 -7.800781 15.265625 -6.601562 15.421875 -5.6875 C 15.578125 -4.78125 15.878906 -4.082031 16.328125 -3.59375 C 16.773438 -3.101562 17.414062 -2.757812 18.25 -2.5625 C 19.082031 -2.375 20.179688 -2.257812 21.546875 -2.21875 L 21.546875 0 L 2.625 0 L 2.625 -2.21875 C 3.988281 -2.257812 5.085938 -2.375 5.921875 -2.5625 C 6.765625 -2.757812 7.414062 -3.09375 7.875 -3.5625 C 8.34375 -4.03125 8.65625 -4.691406 8.8125 -5.546875 C 8.96875 -6.398438 9.046875 -7.507812 9.046875 -8.875 L 9.046875 -36.09375 C 9.046875 -37.457031 8.976562 -38.554688 8.84375 -39.390625 C 8.707031 -40.234375 8.4375 -40.894531 8.03125 -41.375 C 7.625 -41.863281 7.03125 -42.195312 6.25 -42.375 C 5.46875 -42.550781 4.457031 -42.675781 3.21875 -42.75 L 3.21875 -44.96875 L 20.96875 -44.96875 L 20.96875 -42.75 C 19.71875 -42.707031 18.710938 -42.585938 17.953125 -42.390625 C 17.203125 -42.203125 16.617188 -41.851562 16.203125 -41.34375 C 15.796875 -40.84375 15.523438 -40.144531 15.390625 -39.25 C 15.253906 -38.351562 15.1875 -37.164062 15.1875 -35.6875 L 15.1875 -24.46875 L 38.84375 -24.46875 L 38.84375 -36.09375 C 38.84375 -37.457031 38.773438 -38.554688 38.640625 -39.390625 C 38.503906 -40.234375 38.226562 -40.894531 37.8125 -41.375 C 37.40625 -41.863281 36.8125 -42.195312 36.03125 -42.375 C 35.257812 -42.550781 34.25 -42.675781 33 -42.75 L 33 -44.96875 L 50.75 -44.96875 L 50.75 -42.75 C 49.507812 -42.707031 48.507812 -42.585938 47.75 -42.390625 C 46.988281 -42.203125 46.398438 -41.851562 45.984375 -41.34375 C 45.578125 -40.84375 45.304688 -40.144531 45.171875 -39.25 C 45.035156 -38.351562 44.96875 -37.164062 44.96875 -35.6875 Z M 44.96875 -9.28125 "/></g></g></g><g fill="#2e2c3b" fill-opacity="1"><g transform="translate(222.382171, 67.931914)"><g><path d="M 15.1875 -24.703125 C 17.289062 -24.703125 19.050781 -24.828125 20.46875 -25.078125 C 21.894531 -25.335938 23.023438 -25.738281 23.859375 -26.28125 C 24.691406 -26.820312 25.289062 -27.519531 25.65625 -28.375 C 26.03125 -29.238281 26.21875 -30.253906 26.21875 -31.421875 L 28.265625 -31.421875 L 28.265625 -15.484375 L 26.21875 -15.484375 C 26.21875 -16.648438 26.050781 -17.660156 25.71875 -18.515625 C 25.394531 -19.367188 24.8125 -20.078125 23.96875 -20.640625 C 23.132812 -21.210938 22.003906 -21.644531 20.578125 -21.9375 C 19.160156 -22.226562 17.363281 -22.375 15.1875 -22.375 L 15.1875 -9.171875 C 15.1875 -7.890625 15.34375 -6.828125 15.65625 -5.984375 C 15.96875 -5.148438 16.5 -4.46875 17.25 -3.9375 C 18.007812 -3.414062 19.015625 -3.046875 20.265625 -2.828125 C 21.515625 -2.617188 23.050781 -2.515625 24.875 -2.515625 C 26.945312 -2.515625 28.703125 -2.660156 30.140625 -2.953125 C 31.578125 -3.242188 32.78125 -3.738281 33.75 -4.4375 C 34.726562 -5.132812 35.507812 -6.054688 36.09375 -7.203125 C 36.675781 -8.359375 37.164062 -9.789062 37.5625 -11.5 L 39.78125 -11.5 L 38.90625 0 L 2.625 0 L 2.625 -2.21875 C 3.988281 -2.257812 5.085938 -2.375 5.921875 -2.5625 C 6.765625 -2.757812 7.414062 -3.09375 7.875 -3.5625 C 8.34375 -4.03125 8.65625 -4.691406 8.8125 -5.546875 C 8.96875 -6.398438 9.046875 -7.507812 9.046875 -8.875 L 9.046875 -36.09375 C 9.046875 -37.457031 8.976562 -38.554688 8.84375 -39.390625 C 8.707031 -40.234375 8.4375 -40.894531 8.03125 -41.375 C 7.625 -41.863281 7.03125 -42.195312 6.25 -42.375 C 5.46875 -42.550781 4.457031 -42.675781 3.21875 -42.75 L 3.21875 -44.96875 L 36.96875 -44.96875 L 37.5 -34.6875 L 35.453125 -34.6875 C 35.222656 -36.25 34.84375 -37.523438 34.3125 -38.515625 C 33.789062 -39.515625 33.070312 -40.304688 32.15625 -40.890625 C 31.238281 -41.472656 30.078125 -41.878906 28.671875 -42.109375 C 27.273438 -42.347656 25.582031 -42.46875 23.59375 -42.46875 L 16.171875 -42.46875 C 15.515625 -42.46875 15.1875 -42.132812 15.1875 -41.46875 Z M 15.1875 -24.703125 "/></g></g></g><g fill="#2e2c3b" fill-opacity="1"><g transform="translate(264.782724, 67.931914)"><g><path d="M 3.390625 -13.71875 L 5.546875 -13.71875 C 5.816406 -11.96875 6.332031 -10.390625 7.09375 -8.984375 C 7.851562 -7.585938 8.804688 -6.398438 9.953125 -5.421875 C 11.109375 -4.453125 12.429688 -3.703125 13.921875 -3.171875 C 15.421875 -2.648438 17.050781 -2.390625 18.8125 -2.390625 C 21.6875 -2.390625 23.960938 -3.070312 25.640625 -4.4375 C 27.316406 -5.800781 28.15625 -7.648438 28.15625 -9.984375 C 28.15625 -10.960938 27.988281 -11.859375 27.65625 -12.671875 C 27.320312 -13.492188 26.765625 -14.28125 25.984375 -15.03125 C 25.210938 -15.789062 24.171875 -16.539062 22.859375 -17.28125 C 21.554688 -18.019531 19.914062 -18.820312 17.9375 -19.6875 C 15.519531 -20.738281 13.492188 -21.75 11.859375 -22.71875 C 10.222656 -23.695312 8.914062 -24.707031 7.9375 -25.75 C 6.96875 -26.800781 6.273438 -27.921875 5.859375 -29.109375 C 5.453125 -30.296875 5.25 -31.648438 5.25 -33.171875 C 5.25 -34.960938 5.570312 -36.617188 6.21875 -38.140625 C 6.863281 -39.660156 7.769531 -40.972656 8.9375 -42.078125 C 10.101562 -43.191406 11.484375 -44.050781 13.078125 -44.65625 C 14.679688 -45.257812 16.4375 -45.5625 18.34375 -45.5625 C 20.050781 -45.5625 21.644531 -45.285156 23.125 -44.734375 C 24.601562 -44.191406 26.101562 -43.316406 27.625 -42.109375 L 29.140625 -44.734375 L 30.484375 -44.734375 L 31.125 -33.109375 L 28.96875 -33.109375 C 28.03125 -36.304688 26.675781 -38.679688 24.90625 -40.234375 C 23.132812 -41.796875 21.003906 -42.578125 18.515625 -42.578125 C 16.140625 -42.578125 14.25 -41.992188 12.84375 -40.828125 C 11.445312 -39.660156 10.75 -38.082031 10.75 -36.09375 C 10.75 -35.15625 10.90625 -34.304688 11.21875 -33.546875 C 11.53125 -32.796875 12.035156 -32.078125 12.734375 -31.390625 C 13.429688 -30.710938 14.34375 -30.03125 15.46875 -29.34375 C 16.601562 -28.664062 18.007812 -27.957031 19.6875 -27.21875 C 22.5625 -25.9375 24.953125 -24.738281 26.859375 -23.625 C 28.773438 -22.507812 30.296875 -21.394531 31.421875 -20.28125 C 32.546875 -19.175781 33.34375 -18.007812 33.8125 -16.78125 C 34.28125 -15.5625 34.515625 -14.191406 34.515625 -12.671875 C 34.515625 -10.722656 34.125 -8.929688 33.34375 -7.296875 C 32.570312 -5.660156 31.484375 -4.257812 30.078125 -3.09375 C 28.679688 -1.925781 27.007812 -1.019531 25.0625 -0.375 C 23.113281 0.257812 20.96875 0.578125 18.625 0.578125 C 16.40625 0.578125 14.410156 0.269531 12.640625 -0.34375 C 10.867188 -0.96875 9.070312 -2.019531 7.25 -3.5 L 5.609375 -0.640625 L 4.265625 -0.640625 Z M 3.390625 -13.71875 "/></g></g></g><g fill="#2e2c3b" fill-opacity="1"><g transform="translate(302.452647, 67.931914)"><g><path d="M 15.1875 -11.03125 C 15.1875 -9.09375 15.265625 -7.554688 15.421875 -6.421875 C 15.578125 -5.296875 15.878906 -4.421875 16.328125 -3.796875 C 16.773438 -3.171875 17.414062 -2.757812 18.25 -2.5625 C 19.082031 -2.375 20.179688 -2.257812 21.546875 -2.21875 L 21.546875 0 L 2.625 0 L 2.625 -2.21875 C 3.988281 -2.257812 5.085938 -2.382812 5.921875 -2.59375 C 6.765625 -2.8125 7.414062 -3.210938 7.875 -3.796875 C 8.34375 -4.378906 8.65625 -5.207031 8.8125 -6.28125 C 8.96875 -7.351562 9.046875 -8.800781 9.046875 -10.625 L 9.046875 -34.34375 C 9.046875 -35.976562 8.976562 -37.332031 8.84375 -38.40625 C 8.707031 -39.476562 8.4375 -40.320312 8.03125 -40.9375 C 7.625 -41.5625 7.03125 -42 6.25 -42.25 C 5.46875 -42.507812 4.457031 -42.675781 3.21875 -42.75 L 3.21875 -44.96875 L 20.96875 -44.96875 L 20.96875 -42.75 C 19.71875 -42.707031 18.710938 -42.550781 17.953125 -42.28125 C 17.203125 -42.007812 16.617188 -41.550781 16.203125 -40.90625 C 15.796875 -40.269531 15.523438 -39.382812 15.390625 -38.25 C 15.253906 -37.125 15.1875 -35.6875 15.1875 -33.9375 Z M 15.1875 -11.03125 "/></g></g></g><g fill="#2e2c3b" fill-opacity="1"><g transform="translate(326.689873, 67.931914)"><g><path d="M 3.390625 -13.71875 L 5.546875 -13.71875 C 5.816406 -11.96875 6.332031 -10.390625 7.09375 -8.984375 C 7.851562 -7.585938 8.804688 -6.398438 9.953125 -5.421875 C 11.109375 -4.453125 12.429688 -3.703125 13.921875 -3.171875 C 15.421875 -2.648438 17.050781 -2.390625 18.8125 -2.390625 C 21.6875 -2.390625 23.960938 -3.070312 25.640625 -4.4375 C 27.316406 -5.800781 28.15625 -7.648438 28.15625 -9.984375 C 28.15625 -10.960938 27.988281 -11.859375 27.65625 -12.671875 C 27.320312 -13.492188 26.765625 -14.28125 25.984375 -15.03125 C 25.210938 -15.789062 24.171875 -16.539062 22.859375 -17.28125 C 21.554688 -18.019531 19.914062 -18.820312 17.9375 -19.6875 C 15.519531 -20.738281 13.492188 -21.75 11.859375 -22.71875 C 10.222656 -23.695312 8.914062 -24.707031 7.9375 -25.75 C 6.96875 -26.800781 6.273438 -27.921875 5.859375 -29.109375 C 5.453125 -30.296875 5.25 -31.648438 5.25 -33.171875 C 5.25 -34.960938 5.570312 -36.617188 6.21875 -38.140625 C 6.863281 -39.660156 7.769531 -40.972656 8.9375 -42.078125 C 10.101562 -43.191406 11.484375 -44.050781 13.078125 -44.65625 C 14.679688 -45.257812 16.4375 -45.5625 18.34375 -45.5625 C 20.050781 -45.5625 21.644531 -45.285156 23.125 -44.734375 C 24.601562 -44.191406 26.101562 -43.316406 27.625 -42.109375 L 29.140625 -44.734375 L 30.484375 -44.734375 L 31.125 -33.109375 L 28.96875 -33.109375 C 28.03125 -36.304688 26.675781 -38.679688 24.90625 -40.234375 C 23.132812 -41.796875 21.003906 -42.578125 18.515625 -42.578125 C 16.140625 -42.578125 14.25 -41.992188 12.84375 -40.828125 C 11.445312 -39.660156 10.75 -38.082031 10.75 -36.09375 C 10.75 -35.15625 10.90625 -34.304688 11.21875 -33.546875 C 11.53125 -32.796875 12.035156 -32.078125 12.734375 -31.390625 C 13.429688 -30.710938 14.34375 -30.03125 15.46875 -29.34375 C 16.601562 -28.664062 18.007812 -27.957031 19.6875 -27.21875 C 22.5625 -25.9375 24.953125 -24.738281 26.859375 -23.625 C 28.773438 -22.507812 30.296875 -21.394531 31.421875 -20.28125 C 32.546875 -19.175781 33.34375 -18.007812 33.8125 -16.78125 C 34.28125 -15.5625 34.515625 -14.191406 34.515625 -12.671875 C 34.515625 -10.722656 34.125 -8.929688 33.34375 -7.296875 C 32.570312 -5.660156 31.484375 -4.257812 30.078125 -3.09375 C 28.679688 -1.925781 27.007812 -1.019531 25.0625 -0.375 C 23.113281 0.257812 20.96875 0.578125 18.625 0.578125 C 16.40625 0.578125 14.410156 0.269531 12.640625 -0.34375 C 10.867188 -0.96875 9.070312 -2.019531 7.25 -3.5 L 5.609375 -0.640625 L 4.265625 -0.640625 Z M 3.390625 -13.71875 "/></g></g></g><g clip-path="url(#a0f62b8d81)"><path fill="#222221" d="M 241.476562 79.199219 L 242.222656 77.890625 L 242.96875 79.199219 C 243.429688 80.011719 244.125 80.679688 244.972656 81.125 L 246.335938 81.839844 L 244.972656 82.554688 C 244.125 83 243.429688 83.667969 242.96875 84.480469 L 242.222656 85.789062 L 241.476562 84.480469 C 241.015625 83.667969 240.320312 83 239.472656 82.554688 L 238.109375 81.839844 L 239.472656 81.125 C 240.320312 80.679688 241.015625 80.011719 241.476562 79.199219 Z M 241.476562 79.199219 " fill-opacity="1" fill-rule="nonzero"/></g><g clip-path="url(#8813f03607)"><path fill="#222221" d="M 230.6875 82.542969 L 110.253906 82.542969 C 109.804688 82.542969 109.441406 82.195312 109.441406 81.765625 C 109.441406 81.332031 109.804688 80.984375 110.253906 80.984375 L 230.6875 80.984375 C 231.136719 80.984375 231.496094 81.332031 231.496094 81.765625 C 231.496094 82.195312 231.132812 82.542969 230.6875 82.542969 Z M 230.6875 82.542969 " fill-opacity="1" fill-rule="nonzero"/></g><path fill="#222221" d="M 374.195312 82.542969 L 253.761719 82.542969 C 253.3125 82.542969 252.949219 82.195312 252.949219 81.765625 C 252.949219 81.332031 253.3125 80.984375 253.761719 80.984375 L 374.195312 80.984375 C 374.644531 80.984375 375.003906 81.332031 375.003906 81.765625 C 375.003906 82.195312 374.644531 82.542969 374.195312 82.542969 Z M 374.195312 82.542969 " fill-opacity="1" fill-rule="nonzero"/><g fill="#2e2c3b" fill-opacity="1"><g transform="translate(157.681609, 118.466258)"><g><path d="M 0.703125 0 L 0.703125 -2.09375 C 0.703125 -2.675781 1 -3.039062 1.59375 -3.1875 L 1.65625 -3.203125 C 1.707031 -3.210938 1.753906 -3.21875 1.796875 -3.21875 C 1.828125 -3.21875 1.90625 -3.234375 2.03125 -3.265625 C 2.15625 -3.296875 2.253906 -3.320312 2.328125 -3.34375 C 2.398438 -3.351562 2.488281 -3.363281 2.59375 -3.375 C 2.707031 -3.394531 2.84375 -3.414062 3 -3.4375 C 3.164062 -3.457031 3.300781 -3.484375 3.40625 -3.515625 L 3.40625 -22.09375 C 3.300781 -22.113281 3.164062 -22.132812 3 -22.15625 C 2.84375 -22.1875 2.707031 -22.207031 2.59375 -22.21875 C 2.488281 -22.238281 2.398438 -22.253906 2.328125 -22.265625 C 2.253906 -22.273438 2.15625 -22.296875 2.03125 -22.328125 C 1.90625 -22.359375 1.828125 -22.375 1.796875 -22.375 C 1.753906 -22.375 1.707031 -22.378906 1.65625 -22.390625 L 1.59375 -22.40625 C 1 -22.539062 0.703125 -22.910156 0.703125 -23.515625 L 0.703125 -25.609375 L 12.21875 -25.609375 C 13.851562 -25.609375 15.273438 -25.453125 16.484375 -25.140625 C 17.703125 -24.828125 18.6875 -24.363281 19.4375 -23.75 C 20.207031 -23.15625 20.765625 -22.4375 21.109375 -21.59375 C 21.453125 -20.75 21.625 -19.816406 21.625 -18.796875 C 21.625 -18.171875 21.546875 -17.59375 21.390625 -17.0625 C 21.242188 -16.601562 20.957031 -16.082031 20.53125 -15.5 C 20.1875 -15.0625 19.71875 -14.640625 19.125 -14.234375 C 18.601562 -13.867188 17.925781 -13.539062 17.09375 -13.25 C 20.613281 -12.457031 22.375 -10.550781 22.375 -7.53125 C 22.375 -6.425781 22.160156 -5.425781 21.734375 -4.53125 C 21.285156 -3.570312 20.6875 -2.769531 19.9375 -2.125 C 19.207031 -1.5 18.238281 -0.984375 17.03125 -0.578125 C 15.894531 -0.191406 14.570312 0 13.0625 0 Z M 8.140625 -3.71875 L 13 -3.71875 C 13.875 -3.71875 14.617188 -3.820312 15.234375 -4.03125 C 15.796875 -4.226562 16.269531 -4.515625 16.65625 -4.890625 C 17.039062 -5.285156 17.296875 -5.695312 17.421875 -6.125 C 17.585938 -6.5625 17.671875 -7.066406 17.671875 -7.640625 C 17.671875 -8.140625 17.578125 -8.632812 17.390625 -9.125 C 17.191406 -9.601562 16.914062 -9.984375 16.5625 -10.265625 C 16.164062 -10.578125 15.679688 -10.816406 15.109375 -10.984375 C 14.546875 -11.140625 13.832031 -11.21875 12.96875 -11.21875 L 8.140625 -11.21875 Z M 8.140625 -14.515625 L 11.96875 -14.515625 C 13.601562 -14.515625 14.828125 -14.8125 15.640625 -15.40625 C 16.472656 -15.988281 16.890625 -16.929688 16.890625 -18.234375 C 16.890625 -19.535156 16.507812 -20.484375 15.75 -21.078125 C 15.007812 -21.640625 13.832031 -21.921875 12.21875 -21.921875 L 8.140625 -21.921875 Z M 8.140625 -14.515625 "/></g></g></g><g fill="#2e2c3b" fill-opacity="1"><g transform="translate(184.035274, 118.466258)"><g><path d="M 0.53125 -23.515625 L 0.53125 -25.609375 L 10.8125 -25.609375 L 10.8125 -23.515625 C 10.8125 -22.910156 10.507812 -22.539062 9.90625 -22.40625 C 9.894531 -22.40625 9.859375 -22.398438 9.796875 -22.390625 C 9.742188 -22.378906 9.695312 -22.375 9.65625 -22.375 C 9.625 -22.375 9.539062 -22.359375 9.40625 -22.328125 C 9.269531 -22.296875 9.15625 -22.273438 9.0625 -22.265625 C 9.039062 -22.265625 8.675781 -22.207031 7.96875 -22.09375 L 7.96875 -10.296875 C 7.96875 -9.242188 8.09375 -8.359375 8.34375 -7.640625 C 8.582031 -6.910156 8.976562 -6.226562 9.53125 -5.59375 C 10 -5.070312 10.597656 -4.648438 11.328125 -4.328125 C 12.023438 -4.015625 12.851562 -3.859375 13.8125 -3.859375 C 14.75 -3.859375 15.570312 -4.015625 16.28125 -4.328125 C 17.070312 -4.671875 17.691406 -5.09375 18.140625 -5.59375 C 18.597656 -6.113281 18.972656 -6.785156 19.265625 -7.609375 C 19.546875 -8.523438 19.6875 -9.410156 19.6875 -10.265625 L 19.6875 -22.09375 C 19.03125 -22.195312 18.660156 -22.253906 18.578125 -22.265625 C 18.492188 -22.273438 18.378906 -22.296875 18.234375 -22.328125 C 18.097656 -22.359375 18.015625 -22.375 17.984375 -22.375 C 17.929688 -22.375 17.878906 -22.378906 17.828125 -22.390625 L 17.734375 -22.40625 C 17.148438 -22.539062 16.859375 -22.910156 16.859375 -23.515625 L 16.859375 -25.609375 L 27.125 -25.609375 L 27.125 -23.515625 C 27.125 -22.910156 26.832031 -22.539062 26.25 -22.40625 L 26.15625 -22.390625 C 26.101562 -22.378906 26.054688 -22.375 26.015625 -22.375 C 25.984375 -22.375 25.910156 -22.359375 25.796875 -22.328125 C 25.679688 -22.296875 25.582031 -22.273438 25.5 -22.265625 C 25.425781 -22.253906 25.332031 -22.238281 25.21875 -22.21875 C 25.113281 -22.207031 24.976562 -22.1875 24.8125 -22.15625 C 24.65625 -22.132812 24.523438 -22.113281 24.421875 -22.09375 L 24.421875 -10.265625 C 24.421875 -8.722656 24.175781 -7.316406 23.6875 -6.046875 C 23.164062 -4.722656 22.46875 -3.609375 21.59375 -2.703125 C 20.65625 -1.765625 19.535156 -1.03125 18.234375 -0.5 C 16.972656 0.0195312 15.5 0.28125 13.8125 0.28125 C 12.132812 0.28125 10.660156 0.0195312 9.390625 -0.5 C 8.109375 -1.019531 6.992188 -1.753906 6.046875 -2.703125 C 5.140625 -3.640625 4.429688 -4.753906 3.921875 -6.046875 C 3.453125 -7.253906 3.21875 -8.660156 3.21875 -10.265625 L 3.21875 -22.09375 C 3.101562 -22.113281 2.921875 -22.144531 2.671875 -22.1875 C 2.421875 -22.226562 2.25 -22.253906 2.15625 -22.265625 C 2.082031 -22.273438 1.984375 -22.296875 1.859375 -22.328125 C 1.734375 -22.359375 1.65625 -22.375 1.625 -22.375 C 1.582031 -22.375 1.535156 -22.378906 1.484375 -22.390625 L 1.421875 -22.40625 C 0.828125 -22.539062 0.53125 -22.910156 0.53125 -23.515625 Z M 0.53125 -23.515625 "/></g></g></g><g fill="#2e2c3b" fill-opacity="1"><g transform="translate(215.210742, 118.466258)"><g><path d="M 0.703125 0 L 0.703125 -2.09375 C 0.703125 -2.675781 1 -3.039062 1.59375 -3.1875 L 1.65625 -3.203125 C 1.707031 -3.210938 1.753906 -3.21875 1.796875 -3.21875 C 1.941406 -3.257812 2.117188 -3.300781 2.328125 -3.34375 C 2.398438 -3.351562 2.488281 -3.363281 2.59375 -3.375 C 2.707031 -3.394531 2.84375 -3.414062 3 -3.4375 C 3.164062 -3.457031 3.300781 -3.484375 3.40625 -3.515625 L 3.40625 -22.09375 C 3.300781 -22.113281 3.164062 -22.132812 3 -22.15625 C 2.84375 -22.1875 2.707031 -22.207031 2.59375 -22.21875 C 2.488281 -22.238281 2.398438 -22.253906 2.328125 -22.265625 C 2.253906 -22.273438 2.15625 -22.296875 2.03125 -22.328125 C 1.90625 -22.359375 1.828125 -22.375 1.796875 -22.375 C 1.753906 -22.375 1.707031 -22.378906 1.65625 -22.390625 L 1.59375 -22.40625 C 1 -22.539062 0.703125 -22.910156 0.703125 -23.515625 L 0.703125 -25.609375 L 10.9375 -25.609375 C 12.644531 -25.609375 14.144531 -25.425781 15.4375 -25.0625 C 16.632812 -24.726562 17.648438 -24.222656 18.484375 -23.546875 C 19.304688 -22.859375 19.894531 -22.082031 20.25 -21.21875 C 20.625 -20.34375 20.8125 -19.347656 20.8125 -18.234375 C 20.8125 -17.421875 20.6875 -16.601562 20.4375 -15.78125 C 20.226562 -15.132812 19.859375 -14.441406 19.328125 -13.703125 C 18.878906 -13.085938 18.289062 -12.539062 17.5625 -12.0625 C 16.851562 -11.59375 16.050781 -11.21875 15.15625 -10.9375 C 15.757812 -10.59375 16.28125 -10.097656 16.71875 -9.453125 L 20.75 -3.515625 C 21.40625 -3.410156 21.773438 -3.351562 21.859375 -3.34375 C 21.941406 -3.320312 22.046875 -3.296875 22.171875 -3.265625 C 22.304688 -3.234375 22.394531 -3.21875 22.4375 -3.21875 C 22.5 -3.21875 22.5625 -3.210938 22.625 -3.203125 L 22.734375 -3.1875 C 23.316406 -3.039062 23.609375 -2.675781 23.609375 -2.09375 L 23.609375 0 L 18.84375 0 C 18.382812 0 18.023438 -0.078125 17.765625 -0.234375 C 17.503906 -0.410156 17.269531 -0.648438 17.0625 -0.953125 L 11.6875 -9.15625 C 11.5 -9.4375 11.269531 -9.648438 11 -9.796875 C 10.738281 -9.953125 10.382812 -10.03125 9.9375 -10.03125 L 8.140625 -10.03125 L 8.140625 -3.515625 C 8.253906 -3.484375 8.4375 -3.445312 8.6875 -3.40625 C 8.9375 -3.375 9.109375 -3.351562 9.203125 -3.34375 C 9.273438 -3.320312 9.375 -3.296875 9.5 -3.265625 C 9.625 -3.234375 9.703125 -3.21875 9.734375 -3.21875 C 9.765625 -3.21875 9.800781 -3.210938 9.84375 -3.203125 C 9.894531 -3.191406 9.925781 -3.1875 9.9375 -3.1875 C 10.539062 -3.039062 10.84375 -2.675781 10.84375 -2.09375 L 10.84375 0 Z M 8.140625 -13.421875 L 10.875 -13.421875 C 11.644531 -13.421875 12.421875 -13.539062 13.203125 -13.78125 C 13.867188 -13.988281 14.425781 -14.289062 14.875 -14.6875 C 15.28125 -15.070312 15.59375 -15.546875 15.8125 -16.109375 C 16.03125 -16.671875 16.140625 -17.257812 16.140625 -17.875 C 16.140625 -19.164062 15.71875 -20.171875 14.875 -20.890625 C 14.039062 -21.578125 12.726562 -21.921875 10.9375 -21.921875 L 8.140625 -21.921875 Z M 8.140625 -13.421875 "/></g></g></g><g fill="#2e2c3b" fill-opacity="1"><g transform="translate(242.981565, 118.466258)"><g><path d="M 0.703125 0 L 0.703125 -2.09375 C 0.703125 -2.675781 1 -3.039062 1.59375 -3.1875 L 1.65625 -3.203125 C 1.707031 -3.210938 1.753906 -3.21875 1.796875 -3.21875 C 1.828125 -3.21875 1.90625 -3.234375 2.03125 -3.265625 C 2.15625 -3.296875 2.253906 -3.320312 2.328125 -3.34375 C 2.398438 -3.351562 2.488281 -3.363281 2.59375 -3.375 C 2.707031 -3.394531 2.84375 -3.414062 3 -3.4375 C 3.164062 -3.457031 3.300781 -3.484375 3.40625 -3.515625 L 3.40625 -22.09375 C 3.300781 -22.113281 3.164062 -22.132812 3 -22.15625 C 2.84375 -22.1875 2.707031 -22.207031 2.59375 -22.21875 C 2.488281 -22.238281 2.398438 -22.253906 2.328125 -22.265625 C 2.253906 -22.273438 2.15625 -22.296875 2.03125 -22.328125 C 1.90625 -22.359375 1.828125 -22.375 1.796875 -22.375 C 1.753906 -22.375 1.707031 -22.378906 1.65625 -22.390625 L 1.59375 -22.40625 C 1 -22.539062 0.703125 -22.910156 0.703125 -23.515625 L 0.703125 -25.609375 L 19.53125 -25.609375 L 19.53125 -18.875 L 17.5 -18.875 C 17.0625 -18.875 16.789062 -19.09375 16.6875 -19.53125 C 16.539062 -20.644531 16.453125 -21.40625 16.421875 -21.8125 L 8.171875 -21.8125 L 8.171875 -14.734375 L 16.859375 -14.734375 L 16.859375 -11.046875 L 8.171875 -11.046875 L 8.171875 -3.828125 L 16.421875 -3.828125 C 16.453125 -4.203125 16.539062 -4.953125 16.6875 -6.078125 C 16.789062 -6.535156 17.0625 -6.765625 17.5 -6.765625 L 19.53125 -6.765625 L 19.53125 0 Z M 0.703125 0 "/></g></g></g><g fill="#2e2c3b" fill-opacity="1"><g transform="translate(266.829279, 118.466258)"><g><path d="M 0.609375 0 L 0.609375 -1.796875 C 0.609375 -2.210938 0.84375 -2.523438 1.3125 -2.734375 C 1.71875 -2.890625 2.363281 -3.160156 3.25 -3.546875 L 11.890625 -25.609375 L 16.78125 -25.609375 L 25.46875 -3.546875 C 26.351562 -3.160156 27 -2.890625 27.40625 -2.734375 C 27.851562 -2.566406 28.078125 -2.253906 28.078125 -1.796875 L 28.078125 0 L 19.4375 0 L 19.4375 -1.796875 C 19.4375 -2.210938 19.671875 -2.523438 20.140625 -2.734375 C 20.148438 -2.742188 20.1875 -2.753906 20.25 -2.765625 C 20.3125 -2.785156 20.394531 -2.816406 20.5 -2.859375 C 20.613281 -2.910156 20.726562 -2.960938 20.84375 -3.015625 L 20.71875 -3.40625 L 19.4375 -6.859375 L 9.25 -6.859375 L 7.9375 -3.21875 L 7.828125 -3.015625 C 7.941406 -2.960938 8.050781 -2.910156 8.15625 -2.859375 C 8.269531 -2.816406 8.359375 -2.785156 8.421875 -2.765625 C 8.484375 -2.742188 8.523438 -2.734375 8.546875 -2.734375 C 9.015625 -2.523438 9.25 -2.210938 9.25 -1.796875 L 9.25 0 Z M 10.484375 -10.234375 L 18.234375 -10.234375 L 15.296875 -18.203125 C 15.253906 -18.316406 15.179688 -18.515625 15.078125 -18.796875 C 14.972656 -19.078125 14.890625 -19.3125 14.828125 -19.5 C 14.785156 -19.632812 14.617188 -20.207031 14.328125 -21.21875 C 14.046875 -20.1875 13.882812 -19.613281 13.84375 -19.5 C 13.800781 -19.34375 13.753906 -19.1875 13.703125 -19.03125 C 13.648438 -18.875 13.59375 -18.710938 13.53125 -18.546875 C 13.46875 -18.390625 13.414062 -18.265625 13.375 -18.171875 Z M 10.484375 -10.234375 "/></g></g></g><g fill="#2e2c3b" fill-opacity="1"><g transform="translate(299.093544, 118.466258)"><g><path d="M 0.53125 -23.515625 L 0.53125 -25.609375 L 10.8125 -25.609375 L 10.8125 -23.515625 C 10.8125 -22.910156 10.507812 -22.539062 9.90625 -22.40625 C 9.894531 -22.40625 9.859375 -22.398438 9.796875 -22.390625 C 9.742188 -22.378906 9.695312 -22.375 9.65625 -22.375 C 9.625 -22.375 9.539062 -22.359375 9.40625 -22.328125 C 9.269531 -22.296875 9.15625 -22.273438 9.0625 -22.265625 C 9.039062 -22.265625 8.675781 -22.207031 7.96875 -22.09375 L 7.96875 -10.296875 C 7.96875 -9.242188 8.09375 -8.359375 8.34375 -7.640625 C 8.582031 -6.910156 8.976562 -6.226562 9.53125 -5.59375 C 10 -5.070312 10.597656 -4.648438 11.328125 -4.328125 C 12.023438 -4.015625 12.851562 -3.859375 13.8125 -3.859375 C 14.75 -3.859375 15.570312 -4.015625 16.28125 -4.328125 C 17.070312 -4.671875 17.691406 -5.09375 18.140625 -5.59375 C 18.597656 -6.113281 18.972656 -6.785156 19.265625 -7.609375 C 19.546875 -8.523438 19.6875 -9.410156 19.6875 -10.265625 L 19.6875 -22.09375 C 19.03125 -22.195312 18.660156 -22.253906 18.578125 -22.265625 C 18.492188 -22.273438 18.378906 -22.296875 18.234375 -22.328125 C 18.097656 -22.359375 18.015625 -22.375 17.984375 -22.375 C 17.929688 -22.375 17.878906 -22.378906 17.828125 -22.390625 L 17.734375 -22.40625 C 17.148438 -22.539062 16.859375 -22.910156 16.859375 -23.515625 L 16.859375 -25.609375 L 27.125 -25.609375 L 27.125 -23.515625 C 27.125 -22.910156 26.832031 -22.539062 26.25 -22.40625 L 26.15625 -22.390625 C 26.101562 -22.378906 26.054688 -22.375 26.015625 -22.375 C 25.984375 -22.375 25.910156 -22.359375 25.796875 -22.328125 C 25.679688 -22.296875 25.582031 -22.273438 25.5 -22.265625 C 25.425781 -22.253906 25.332031 -22.238281 25.21875 -22.21875 C 25.113281 -22.207031 24.976562 -22.1875 24.8125 -22.15625 C 24.65625 -22.132812 24.523438 -22.113281 24.421875 -22.09375 L 24.421875 -10.265625 C 24.421875 -8.722656 24.175781 -7.316406 23.6875 -6.046875 C 23.164062 -4.722656 22.46875 -3.609375 21.59375 -2.703125 C 20.65625 -1.765625 19.535156 -1.03125 18.234375 -0.5 C 16.972656 0.0195312 15.5 0.28125 13.8125 0.28125 C 12.132812 0.28125 10.660156 0.0195312 9.390625 -0.5 C 8.109375 -1.019531 6.992188 -1.753906 6.046875 -2.703125 C 5.140625 -3.640625 4.429688 -4.753906 3.921875 -6.046875 C 3.453125 -7.253906 3.21875 -8.660156 3.21875 -10.265625 L 3.21875 -22.09375 C 3.101562 -22.113281 2.921875 -22.144531 2.671875 -22.1875 C 2.421875 -22.226562 2.25 -22.253906 2.15625 -22.265625 C 2.082031 -22.273438 1.984375 -22.296875 1.859375 -22.328125 C 1.734375 -22.359375 1.65625 -22.375 1.625 -22.375 C 1.582031 -22.375 1.535156 -22.378906 1.484375 -22.390625 L 1.421875 -22.40625 C 0.828125 -22.539062 0.53125 -22.910156 0.53125 -23.515625 Z M 0.53125 -23.515625 "/></g></g></g></svg>